<svg width="250" height="250" viewBox="0 0 250 250" fill="none" xmlns="http://www.w3.org/2000/svg">
<g clip-path="url(#clip0_6168_236)">
<path d="M185.417 200L166.667 114.583L203.125 78.125C218.75 62.5 223.958 41.6667 218.75 31.25C208.333 26.0417 187.5 31.25 171.875 46.875L135.417 83.3333L50 64.5833C44.7917 63.5417 40.625 65.625 38.5417 69.7917L35.4167 75C33.3333 80.2083 34.375 85.4167 38.5417 88.5417L93.75 125L72.9167 156.25H41.6667L31.25 166.667L62.5 187.5L83.3333 218.75L93.75 208.333V177.083L125 156.25L161.458 211.458C164.583 215.625 169.792 216.667 175 214.583L180.208 212.5C184.375 209.375 186.458 205.208 185.417 200Z" stroke="white" stroke-width="15" stroke-linecap="round" stroke-linejoin="round"/>
</g>
<defs>
<clipPath id="clip0_6168_236">
<rect width="250" height="250" fill="white"/>
</clipPath>
</defs>
</svg>
